HIERARCHY
ROOT reference
{
  OFFSET 0 0 0
  CHANNELS 6 Xposition Yposition Zposition Zrotation Xrotation Yrotation
  JOINT Hips
  {
    OFFSET 350.331 86.7696 215.823
    CHANNELS 3 Zrotation Xrotation Yrotation
    JOINT RightUpLeg
    {
      OFFSET -9.29271 -1.56052 -0.0234997
      CHANNELS 3 Zrotation Xrotation Yrotation
      JOINT RightLeg
      {
        OFFSET -0.0199852 -41.8973 0.0465042
        CHANNELS 3 Zrotation Xrotation Yrotation
        JOINT RightFoot
        {
          OFFSET -0.344404 -43.5008 0.46033
          CHANNELS 3 Zrotation Xrotation Yrotation
          End Site
          {
            OFFSET 0 -7.69 17.5
          }
        }
      }
    }
    JOINT LeftUpLeg
    {
      OFFSET 9.27671 -1.61046 0.00923455
      CHANNELS 3 Zrotation Xrotation Yrotation
      JOINT LeftLeg
      {
        OFFSET 0.0572944 -41.8832 0.025786
        CHANNELS 3 Zrotation Xrotation Yrotation
        JOINT LeftFoot
        {
          OFFSET 0.630082 -40.4663 0.064708
          CHANNELS 3 Zrotation Xrotation Yrotation
          End Site
          {
            OFFSET 0 -7.69 17.5
          }
        }
      }
    }
    JOINT Spine
    {
      OFFSET 0.0336257 14.3009 0.0467062
      CHANNELS 3 Zrotation Xrotation Yrotation
      JOINT Spine1
      {
        OFFSET 0.0295985 9.72711 0.0239471
        CHANNELS 3 Zrotation Xrotation Yrotation
        JOINT Spine2
        {
          OFFSET 0.0515174 10.1206 0.00128176
          CHANNELS 3 Zrotation Xrotation Yrotation
          JOINT Spine3
          {
            OFFSET 0.0546141 9.71668 0.0122483
            CHANNELS 3 Zrotation Xrotation Yrotation
            JOINT Neck
            {
              OFFSET 0.0872189 10.3831 0.0511468
              CHANNELS 3 Zrotation Xrotation Yrotation
              JOINT Head
              {
                OFFSET 0.0544 9.47189 0.0313815
                CHANNELS 3 Zrotation Xrotation Yrotation
                End Site
                {
                  OFFSET 0 15.95 0
                }
              }
            }
            JOINT RightShoulder
            {
              OFFSET -3.15364 6.93551 0.0260198
              CHANNELS 3 Zrotation Xrotation Yrotation
              JOINT RightArm
              {
                OFFSET -12.7567 0.0626665 0.0664987
                CHANNELS 3 Zrotation Xrotation Yrotation
                JOINT RightForeArm
                {
                  OFFSET -26.5087 -0.073346 0.274032
                  CHANNELS 3 Zrotation Xrotation Yrotation
                  JOINT RightHand
                  {
                    OFFSET -26.0005 -0.196673 0.105827
                    CHANNELS 3 Zrotation Xrotation Yrotation
                    JOINT RightHandThumb1
                    {
                      OFFSET -2.48905 0.190105 3.12053
                      CHANNELS 3 Zrotation Xrotation Yrotation
                      JOINT RightHandThumb2
                      {
                        OFFSET -3.68274 0 0
                        CHANNELS 3 Zrotation Xrotation Yrotation
                        JOINT RightHandThumb3
                        {
                          OFFSET -2.55832 0 0
                          CHANNELS 3 Zrotation Xrotation Yrotation
                          End Site
                          {
                            OFFSET -2.194 0 0
                          }
                        }
                      }
                    }
                    JOINT RightInHandIndex
                    {
                      OFFSET -3.22368 0.508421 1.97842
                      CHANNELS 3 Zrotation Xrotation Yrotation
                      JOINT RightHandIndex1
                      {
                        OFFSET -5.21684 -0.091368 0.999158
                        CHANNELS 3 Zrotation Xrotation Yrotation
                        JOINT RightHandIndex2
                        {
                          OFFSET -3.61937 0 0
                          CHANNELS 3 Zrotation Xrotation Yrotation
                          JOINT RightHandIndex3
                          {
                            OFFSET -2.0521 0 0
                            CHANNELS 3 Zrotation Xrotation Yrotation
                            End Site
                            {
                              OFFSET -1.805 0 0
                            }
                          }
                        }
                      }
                    }
                    JOINT RightInHandMiddle
                    {
                      OFFSET -3.38211 0.517263 0.756737
                      CHANNELS 3 Zrotation Xrotation Yrotation
                      JOINT RightHandMiddle1
                      {
                        OFFSET -5.17411 -0.084 0.313895
                        CHANNELS 3 Zrotation Xrotation Yrotation
                        JOINT RightHandMiddle2
                        {
                          OFFSET -3.94947 0 0
                          CHANNELS 3 Zrotation Xrotation Yrotation
                          JOINT RightHandMiddle3
                          {
                            OFFSET -2.47579 0 0
                            CHANNELS 3 Zrotation Xrotation Yrotation
                            End Site
                            {
                              OFFSET -1.975 0 0
                            }
                          }
                        }
                      }
                    }
                    JOINT RightInHandRing
                    {
                      OFFSET -3.36516 0.537895 -0.128947
                      CHANNELS 3 Zrotation Xrotation Yrotation
                      JOINT RightHandRing1
                      {
                        OFFSET -4.63474 -0.022105 -0.478947
                        CHANNELS 3 Zrotation Xrotation Yrotation
                        JOINT RightHandRing2
                        {
                          OFFSET -3.44238 0 0
                          CHANNELS 3 Zrotation Xrotation Yrotation
                          JOINT RightHandRing3
                          {
                            OFFSET -2.3881 0 0
                            CHANNELS 3 Zrotation Xrotation Yrotation
                            End Site
                            {
                              OFFSET -1.857 0 0
                            }
                          }
                        }
                      }
                    }
                    JOINT RightInHandPinky
                    {
                      OFFSET -3.16105 0.469368 -1.20179
                      CHANNELS 3 Zrotation Xrotation Yrotation
                      JOINT RightHandPinky1
                      {
                        OFFSET -4.14105 -0.022105 -1.09053
                        CHANNELS 3 Zrotation Xrotation Yrotation
                        JOINT RightHandPinky2
                        {
                          OFFSET -2.75653 0 0
                          CHANNELS 3 Zrotation Xrotation Yrotation
                          JOINT RightHandPinky3
                          {
                            OFFSET -1.74189 0 0
                            CHANNELS 3 Zrotation Xrotation Yrotation
                            End Site
                            {
                              OFFSET -1.645 0 0
                            }
                          }
                        }
                      }
                    }
                  }
                }
              }
            }
            JOINT LeftShoulder
            {
              OFFSET 3.27252 6.91581 -0.0198585
              CHANNELS 3 Zrotation Xrotation Yrotation
              JOINT LeftArm
              {
                OFFSET 12.8319 -0.0466028 -0.0574599
                CHANNELS 3 Zrotation Xrotation Yrotation
                JOINT LeftForeArm
                {
                  OFFSET 26.4942 -0.039105 -0.0936
                  CHANNELS 3 Zrotation Xrotation Yrotation
                  JOINT LeftHand
                  {
                    OFFSET 26.0008 0.022674 -0.016655
                    CHANNELS 3 Zrotation Xrotation Yrotation
                    JOINT LeftHandThumb1
                    {
                      OFFSET 2.48905 0.190105 3.12053
                      CHANNELS 3 Zrotation Xrotation Yrotation
                      JOINT LeftHandThumb2
                      {
                        OFFSET 3.68274 0 0
                        CHANNELS 3 Zrotation Xrotation Yrotation
                        JOINT LeftHandThumb3
                        {
                          OFFSET 2.55832 0 0
                          CHANNELS 3 Zrotation Xrotation Yrotation
                          End Site
                          {
                            OFFSET 2.194 0 0
                          }
                        }
                      }
                    }
                    JOINT LeftInHandIndex
                    {
                      OFFSET 3.22368 0.508421 1.97842
                      CHANNELS 3 Zrotation Xrotation Yrotation
                      JOINT LeftHandIndex1
                      {
                        OFFSET 5.21684 -0.091368 0.999158
                        CHANNELS 3 Zrotation Xrotation Yrotation
                        JOINT LeftHandIndex2
                        {
                          OFFSET 3.61937 0 0
                          CHANNELS 3 Zrotation Xrotation Yrotation
                          JOINT LeftHandIndex3
                          {
                            OFFSET 2.0521 0 0
                            CHANNELS 3 Zrotation Xrotation Yrotation
                            End Site
                            {
                              OFFSET 1.805 0 0
                            }
                          }
                        }
                      }
                    }
                    JOINT LeftInHandMiddle
                    {
                      OFFSET 3.38211 0.517263 0.756737
                      CHANNELS 3 Zrotation Xrotation Yrotation
                      JOINT LeftHandMiddle1
                      {
                        OFFSET 5.17411 -0.084 0.313895
                        CHANNELS 3 Zrotation Xrotation Yrotation
                        JOINT LeftHandMiddle2
                        {
                          OFFSET 3.94947 0 0
                          CHANNELS 3 Zrotation Xrotation Yrotation
                          JOINT LeftHandMiddle3
                          {
                            OFFSET 2.47579 0 0
                            CHANNELS 3 Zrotation Xrotation Yrotation
                            End Site
                            {
                              OFFSET 1.975 0 0
                            }
                          }
                        }
                      }
                    }
                    JOINT LeftInHandRing
                    {
                      OFFSET 3.36516 0.537895 -0.128947
                      CHANNELS 3 Zrotation Xrotation Yrotation
                      JOINT LeftHandRing1
                      {
                        OFFSET 4.63474 -0.022105 -0.478947
                        CHANNELS 3 Zrotation Xrotation Yrotation
                        JOINT LeftHandRing2
                        {
                          OFFSET 3.44238 0 0
                          CHANNELS 3 Zrotation Xrotation Yrotation
                          JOINT LeftHandRing3
                          {
                            OFFSET 2.3881 0 0
                            CHANNELS 3 Zrotation Xrotation Yrotation
                            End Site
                            {
                              OFFSET 1.857 0 0
                            }
                          }
                        }
                      }
                    }
                    JOINT LeftInHandPinky
                    {
                      OFFSET 3.16105 0.469368 -1.20179
                      CHANNELS 3 Zrotation Xrotation Yrotation
                      JOINT LeftHandPinky1
                      {
                        OFFSET 4.14105 -0.022105 -1.09053
                        CHANNELS 3 Zrotation Xrotation Yrotation
                        JOINT LeftHandPinky2
                        {
                          OFFSET 2.75653 0 0
                          CHANNELS 3 Zrotation Xrotation Yrotation
                          JOINT LeftHandPinky3
                          {
                            OFFSET 1.74189 0 0
                            CHANNELS 3 Zrotation Xrotation Yrotation
                            End Site
                            {
                              OFFSET 1.645 0 0
                            }
                          }
                        }
                      }
                    }
                  }
                }
              }
            }
          }
        }
      }
    }
  }
}
MOTION
Frames:	6
Frame Time:	0.00833333
0 0 0 0 0 -0 27.0213 12.4687 -71.5195 -31.2155 -55.1681 -33.0889 1.51692 25.6813 -12.7117 11.7881 8.09175 29.418 22.9046 -48.8407 9.83692 1.5735 34.2996 1.36504 -14.6103 -12.3983 -18.6397 -11.8144 9.05927 19.9534 -2.68283 2.90224 4.75954 -4.40375 4.83565 7.53371 0.156445 -0.262007 -0.598575 0.156795 -0.260732 -0.599794 2.4893 -4.91961 -10.8565 5.22558 -14.4578 18.0811 68.4652 2.13549 53.5577 8.77152 -50.4343 -5.06651 23.9594 -28.1575 -20.2659 28.184 10.7294 19.1592 -2.80409e-16 -1.59028e-15 -10 -1.1942e-15 2.38542e-15 -10 6.17947e-31 3.18055e-15 -1.11319e-14 19.9818 0.871897 2.3964 24 1.31198e-14 -0 20 3.18055e-15 -3.18055e-15 6.17947e-31 3.18055e-15 -1.11319e-14 20 -9.54166e-15 3.18055e-15 24 -3.97569e-15 -6.36111e-15 20 3.18055e-15 1.59028e-14 6.17947e-31 3.18055e-15 -1.11319e-14 19.9748 -1.02565 -2.81938 24 -9.54166e-15 1.27222e-14 20 -8.74653e-15 3.18055e-15 6.17947e-31 3.18055e-15 -1.11319e-14 19.7815 -3.00948 -8.30515 24 -9.54166e-15 -0 20 5.56597e-15 -9.54166e-15 13.9306 -13.3947 -31.6238 -27.711 33.5881 -74.6128 21.2755 -76.0168 25.5365 -25.1495 -21.7759 9.19684 -28.184 10.7294 -19.1592 2.24327e-15 -1.27222e-14 10 -1.54717e-15 -9.54166e-15 10 1.59028e-14 0 3.18055e-15 -19.9818 0.871897 -2.3964 -24 -7.95139e-16 -9.54166e-15 -20 7.95139e-16 -2.22639e-14 1.59028e-14 0 3.18055e-15 -20 0 -6.36111e-15 -24 8.74653e-15 -0 -20 4.77083e-15 -1.90833e-14 1.59028e-14 0 3.18055e-15 -19.9748 -1.02565 2.81938 -24 6.16232e-15 -1.59028e-14 -20 3.18055e-15 6.36111e-15 1.59028e-14 0 3.18055e-15 -19.7815 -3.00948 8.30515 -24 5.96354e-16 -1.27222e-14 -20 -3.18055e-15 -2.54444e-14 
0 0 0 0 0 -0 27.0324 12.4287 -71.6284 -31.0677 -55.2239 -32.9054 1.50088 25.6208 -12.6568 11.7605 8.13867 29.3735 22.9885 -48.7868 9.9707 1.50224 34.3486 1.44123 -14.589 -12.4392 -18.6767 -11.8231 9.02086 19.9915 -2.68277 2.8949 4.77048 -4.4037 4.8248 7.54986 0.156445 -0.262007 -0.598575 0.156795 -0.260732 -0.599794 2.46537 -4.87078 -10.8287 5.33312 -14.2499 18.0749 68.3682 2.01973 53.3473 11.2402 -53.355 -1.9863 22.2268 -26.1389 -21.8279 28.184 10.7294 19.1592 1.97282e-14 1.98785e-15 -10 1.61481e-14 0 -10 1.76556e-31 3.18055e-15 -3.18055e-15 19.9818 0.871897 2.3964 24 1.39149e-14 3.81667e-14 20 9.54166e-15 2.8625e-14 1.76556e-31 3.18055e-15 -3.18055e-15 20 -6.36111e-15 2.54444e-14 24 7.95139e-15 2.22639e-14 20 -7.95139e-16 2.8625e-14 1.76556e-31 3.18055e-15 -3.18055e-15 19.9748 -1.02565 -2.81938 24 -1.11319e-14 2.8625e-14 20 3.97569e-15 3.18055e-14 1.76556e-31 3.18055e-15 -3.18055e-15 19.7815 -3.00948 -8.30515 24 -3.18055e-15 2.22639e-14 20 1.98785e-15 2.54444e-14 13.9266 -13.3722 -31.6608 -27.5295 33.528 -74.7613 19.5997 -74.2057 23.9741 -25.8108 -23.626 8.33754 -28.184 10.7294 -19.1592 2.73645e-15 -6.36111e-15 10 1.02497e-14 -3.18055e-15 10 9.54166e-15 3.18055e-15 6.36111e-15 -19.9818 0.871897 -2.3964 -24 -2.38542e-15 -1.59028e-14 -20 7.95139e-16 -1.90833e-14 9.54166e-15 3.18055e-15 6.36111e-15 -20 1.59028e-15 -3.18055e-15 -24 1.19271e-14 1.90833e-14 -20 0 -9.54166e-15 9.54166e-15 3.18055e-15 6.36111e-15 -19.9748 -1.02565 2.81938 -24 3.57812e-15 -6.36111e-15 -20 1.59028e-15 9.54166e-15 9.54166e-15 3.18055e-15 6.36111e-15 -19.7815 -3.00948 8.30515 -24 -6.65929e-15 -9.54166e-15 -20 -7.95139e-15 9.54166e-15 
0 0 0 0 0 -0 27.048 12.3786 -71.7514 -30.9231 -55.2807 -32.7174 1.47731 25.5477 -12.5908 11.7381 8.20049 29.329 23.0764 -48.7314 10.116 1.42481 34.4025 1.51977 -14.56 -12.4874 -18.7063 -11.8214 8.97342 20.0367 -2.68262 2.88487 4.78402 -4.40344 4.80963 7.57021 0.156445 -0.262007 -0.598575 0.156795 -0.260732 -0.599794 2.42065 -4.80004 -10.8079 5.37392 -14.0147 18.0386 68.3246 1.90779 53.1093 12.6493 -54.2081 -0.201798 22.0533 -25.7976 -21.9609 28.184 10.7294 19.1592 1.72697e-14 6.36111e-15 -10 1.99385e-14 3.18055e-15 -10 3.18055e-15 -9.54166e-15 -6.36111e-15 19.9818 0.871897 2.3964 24 1.82882e-14 2.22639e-14 20 1.43125e-14 1.90833e-14 3.18055e-15 -9.54166e-15 -6.36111e-15 20 -3.18055e-15 1.27222e-14 24 2.78299e-15 1.59028e-14 20 -4.77083e-15 3.49861e-14 3.18055e-15 -9.54166e-15 -6.36111e-15 19.9748 -1.02565 -2.81938 24 -1.23246e-14 1.90833e-14 20 7.15625e-15 2.8625e-14 3.18055e-15 -9.54166e-15 -6.36111e-15 19.7815 -3.00948 -8.30515 24 -3.97569e-15 9.54166e-15 20 3.97569e-15 2.54444e-14 13.9098 -13.3381 -31.72 -27.3433 33.4668 -74.9076 19.3444 -73.7083 23.7975 -26.0119 -24.2553 8.09749 -28.184 10.7294 -19.1592 6.52688e-15 -9.54166e-15 10 -4.77679e-15 -9.54166e-15 10 1.90833e-14 -9.54166e-15 -0 -19.9818 0.871897 -2.3964 -24 1.19271e-15 -2.8625e-14 -20 3.97569e-15 -2.54444e-14 1.90833e-14 -9.54166e-15 -0 -20 1.11319e-14 -6.36111e-15 -24 1.98785e-14 -3.18055e-15 -20 4.77083e-15 -3.18055e-14 1.90833e-14 -9.54166e-15 -0 -19.9748 -1.02565 2.81938 -24 1.21259e-14 -0 -20 0 3.18055e-15 1.90833e-14 -9.54166e-15 -0 -19.7815 -3.00948 8.30515 -24 1.2921e-15 -1.90833e-14 -20 0 -2.54444e-14 
0 0 0 0 0 -0 27.0618 12.3268 -71.8657 -30.7784 -55.3355 -32.5357 1.43826 25.473 -12.5186 11.7195 8.2644 29.2852 23.1557 -48.671 10.2294 1.31437 34.4622 1.6084 -14.5178 -12.545 -18.7102 -11.8229 8.92214 20.0808 -2.6824 2.87429 4.7972 -4.40301 4.7938 7.58985 0.153212 -0.257398 -0.598574 0.15355 -0.256137 -0.599793 2.3738 -4.71543 -10.8033 5.41929 -13.7607 17.9986 68.3505 1.72535 52.8264 14.1984 -54.9897 1.70175 21.9724 -25.4205 -22.0707 28.184 10.7294 19.1592 2.14832e-14 2.78299e-15 -10 1.45333e-14 0 -10 -5.29669e-31 -6.36111e-15 -4.77083e-15 19.9818 0.871897 2.3964 24 1.63003e-14 3.81667e-14 20 1.43125e-14 1.27222e-14 -5.29669e-31 -6.36111e-15 -4.77083e-15 20 4.77083e-15 2.22639e-14 24 1.19271e-15 2.22639e-14 20 2.38542e-15 3.18055e-14 -5.29669e-31 -6.36111e-15 -4.77083e-15 19.9748 -1.02565 -2.81938 24 1.59028e-15 1.27222e-14 20 1.59028e-15 3.49861e-14 -5.29669e-31 -6.36111e-15 -4.77083e-15 19.7815 -3.00948 -8.30515 24 1.19271e-14 1.59028e-14 20 1.43125e-14 6.36111e-15 13.9141 -13.3109 -31.7912 -27.1601 33.4304 -75.0482 19.0305 -73.1304 23.5305 -26.0522 -24.478 8.17239 -28.184 10.7294 -19.1592 -5.60818e-16 3.18055e-15 10 6.45924e-15 0 10 6.36111e-15 6.36111e-15 3.18055e-15 -19.9818 0.871897 -2.3964 -24 -7.55382e-15 -2.22639e-14 -20 4.77083e-15 -1.27222e-14 6.36111e-15 6.36111e-15 3.18055e-15 -20 4.77083e-15 -9.54166e-15 -24 5.1684e-15 3.18055e-15 -20 1.59028e-15 -0 6.36111e-15 6.36111e-15 3.18055e-15 -19.9748 -1.02565 2.81938 -24 0 -0 -20 3.18055e-15 3.18055e-15 6.36111e-15 6.36111e-15 3.18055e-15 -19.7815 -3.00948 8.30515 -24 -7.95139e-16 -0 -20 4.77083e-15 -9.54166e-15 
0 0 0 0 0 -0 27.0711 12.2818 -71.9679 -30.6361 -55.3874 -32.3927 1.38395 25.3947 -12.4322 11.6997 8.33906 29.252 23.2335 -48.6113 10.3367 1.20827 34.5237 1.68924 -14.4741 -12.6098 -18.7217 -11.8128 8.87653 20.1139 -2.68205 2.86378 4.80776 -4.40224 4.77769 7.60594 0.149978 -0.253213 -0.598574 0.150303 -0.251965 -0.599793 2.32011 -4.63367 -10.8058 5.47508 -13.4923 17.9486 68.4065 1.53551 52.6161 15.7529 -55.5507 3.62514 21.8771 -25.2686 -22.1771 28.184 10.7294 19.1592 2.45727e-14 1.98785e-15 -10 2.00787e-14 3.97569e-15 -10 6.36111e-15 -9.54166e-15 -7.95139e-15 19.9818 0.871897 2.3964 24 2.38542e-14 1.59028e-14 20 3.97569e-15 9.54166e-15 6.36111e-15 -9.54166e-15 -7.95139e-15 20 -3.18055e-15 -0 24 0 1.59028e-14 20 -3.97569e-15 1.90833e-14 6.36111e-15 -9.54166e-15 -7.95139e-15 19.9748 -1.02565 -2.81938 24 -9.93923e-15 1.90833e-14 20 -9.54166e-15 9.54166e-15 6.36111e-15 -9.54166e-15 -7.95139e-15 19.7815 -3.00948 -8.30515 24 1.59028e-15 1.27222e-14 20 7.95139e-15 6.36111e-15 13.9071 -13.302 -31.8522 -27.046 33.4123 -75.0973 18.4881 -72.4528 23.0081 -25.8855 -24.4317 8.38149 -28.184 10.7294 -19.1592 -8.56722e-15 -6.36111e-15 10 -5.89842e-15 -3.18055e-15 10 1.90833e-14 3.18055e-15 -0 -19.9818 0.871897 -2.3964 -24 -5.56597e-15 -1.59028e-14 -20 2.38542e-15 -2.54444e-14 1.90833e-14 3.18055e-15 -0 -20 1.11319e-14 -0 -24 4.77083e-15 2.22639e-14 -20 -3.97569e-15 -6.36111e-15 1.90833e-14 3.18055e-15 -0 -19.9748 -1.02565 2.81938 -24 7.7526e-15 -3.18055e-15 -20 0 -3.18055e-15 1.90833e-14 3.18055e-15 -0 -19.7815 -3.00948 8.30515 -24 -1.91951e-15 -3.18055e-15 -20 -1.59028e-15 -1.90833e-14 
0 0 0 0 0 -0 27.076 12.2249 -72.0735 -30.498 -55.4329 -32.2564 1.3318 25.304 -12.3404 11.6742 8.4313 29.2263 23.3093 -48.5401 10.4418 1.10377 34.6102 1.78976 -14.4376 -12.6982 -18.7567 -11.8021 8.83884 20.1449 -2.68179 2.85483 4.81748 -4.40164 4.76381 7.62073 0.14655 -0.249138 -0.598574 0.146865 -0.247908 -0.599793 2.25775 -4.56654 -10.8549 5.53413 -13.2128 17.9011 68.2201 1.59642 52.8266 16.8235 -56.5804 4.99579 21.8362 -25.1024 -22.2667 28.184 10.7294 19.1592 1.75526e-14 -1.19271e-15 -10 1.27783e-14 -7.95139e-16 -10 0 0 -6.36111e-15 19.9818 0.871897 2.3964 24 1.74931e-14 1.59028e-14 20 7.95139e-15 -0 0 0 -6.36111e-15 20 3.18055e-15 2.22639e-14 24 1.78906e-15 1.27222e-14 20 -5.56597e-15 1.27222e-14 0 0 -6.36111e-15 19.9748 -1.02565 -2.81938 24 -7.95139e-15 2.8625e-14 20 -1.11319e-14 -0 0 0 -6.36111e-15 19.7815 -3.00948 -8.30515 24 -4.77083e-15 9.54166e-15 20 1.03368e-14 -6.36111e-15 13.8927 -13.2987 -31.9011 -27.2065 33.4234 -74.9733 17.7459 -71.547 22.183 -24.7958 -22.9167 9.41679 -28.184 10.7294 -19.1592 7.58087e-15 -6.36111e-15 10 -8.56722e-15 -6.36111e-15 10 9.54166e-15 3.18055e-15 -9.54166e-15 -19.9818 0.871897 -2.3964 -24 -7.95139e-15 -2.54444e-14 -20 3.97569e-15 -1.59028e-14 9.54166e-15 3.18055e-15 -9.54166e-15 -20 -6.36111e-15 -1.27222e-14 -24 6.36111e-15 1.59028e-14 -20 -7.95139e-16 9.54166e-15 9.54166e-15 3.18055e-15 -9.54166e-15 -19.9748 -1.02565 2.81938 -24 9.93923e-15 1.90833e-14 -20 -3.18055e-15 2.54444e-14 9.54166e-15 3.18055e-15 -9.54166e-15 -19.7815 -3.00948 8.30515 -24 7.35503e-15 9.54166e-15 -20 -1.59028e-15 -0 
